<svg xmlns="http://www.w3.org/2000/svg" width="35" height="35.466" viewBox="0 0 35 35.466">
  <g id="accordion" transform="translate(9303 109)">
    <rect id="Rectangle_611" data-name="Rectangle 611" width="35" height="35" transform="translate(-9303 -109)" fill="none"/>
    <g id="music-and-multimedia" transform="translate(-9162.648 -109) rotate(90)">
      <path id="Path_466" data-name="Path 466" d="M65.306,178.811a1.039,1.039,0,1,0-1.039-1.039A1.041,1.041,0,0,0,65.306,178.811Z" transform="translate(-59.815 -59.815)" fill="#19ca4b"/>
      <path id="Path_467" data-name="Path 467" d="M65.306,243.078a1.039,1.039,0,1,0-1.039-1.039A1.041,1.041,0,0,0,65.306,243.078Z" transform="translate(-59.815 -119.63)" fill="#19ca4b"/>
      <path id="Path_468" data-name="Path 468" d="M65.306,307.345a1.039,1.039,0,1,0-1.039-1.039A1.041,1.041,0,0,0,65.306,307.345Z" transform="translate(-59.815 -179.446)" fill="#19ca4b"/>
      <path id="Path_472" data-name="Path 472" d="M34.427,112.466h-8.9a1.043,1.043,0,0,0-.409.084l-2.189.937-2.184-.937a1.039,1.039,0,0,0-.819,0l-2.19.938-2.19-.938a1.039,1.039,0,0,0-.819,0l-2.184.937-2.189-.938a1.036,1.036,0,0,0-.409-.084h-8.9A1.039,1.039,0,0,0,0,113.505v17.807a1.039,1.039,0,0,0,1.039,1.039h8.9a1.039,1.039,0,0,0,.409-.084l2.189-.938,2.184.937a1.039,1.039,0,0,0,.819,0l2.19-.938,2.19.938a1.039,1.039,0,0,0,.819,0l2.184-.937,2.189.937a1.043,1.043,0,0,0,.409.084h8.9a1.039,1.039,0,0,0,1.039-1.039V113.505A1.039,1.039,0,0,0,34.427,112.466ZM8.9,130.273H2.078V114.544H8.9Zm5.192-.538-1.144-.491a1.039,1.039,0,0,0-.819,0l-1.151.493V115.08l1.151.493a1.039,1.039,0,0,0,.819,0l1.144-.491Zm5.2,0-1.151-.493a1.039,1.039,0,0,0-.818,0l-1.151.493V115.08l1.151.493a1.039,1.039,0,0,0,.818,0l1.151-.493v14.656Zm5.192,0-1.151-.493a1.039,1.039,0,0,0-.819,0l-1.144.491V115.082l1.144.491a1.039,1.039,0,0,0,.819,0l1.151-.493Zm8.9.536H26.563V114.544h6.825Z" fill="#19ca4b"/>
    </g>
  </g>
</svg>
