<svg xmlns="http://www.w3.org/2000/svg" width="35" height="35" viewBox="0 0 35 35">
  <g id="alert" transform="translate(9359 109)">
    <rect id="Rectangle_610" data-name="Rectangle 610" width="35" height="35" transform="translate(-9359 -109)" fill="none"/>
    <g id="Icon_feather-alert-triangle" data-name="Icon feather-alert-triangle" transform="translate(-9359.328 -109.346)">
      <path id="Path_463" data-name="Path 463" d="M15.291,5.782,2.726,26.871a3,3,0,0,0-.008,2.969,2.965,2.965,0,0,0,2.545,1.506H30.394a2.965,2.965,0,0,0,2.545-1.506,3,3,0,0,0-.008-2.969L20.365,5.782a2.959,2.959,0,0,0-5.074,0Z" transform="translate(0)" fill="none" stroke="#19ca4b" stroke-linecap="round" stroke-linejoin="round" stroke-width="3"/>
      <path id="Path_464" data-name="Path 464" d="M18,13.5v6" transform="translate(-0.172 -0.067)" fill="none" stroke="#19ca4b" stroke-linecap="round" stroke-linejoin="round" stroke-width="3"/>
      <path id="Path_465" data-name="Path 465" d="M18,25.5h0" transform="translate(-0.172 -0.12)" fill="none" stroke="#19ca4b" stroke-linecap="round" stroke-linejoin="round" stroke-width="3"/>
    </g>
  </g>
</svg>
