<svg xmlns="http://www.w3.org/2000/svg" width="35" height="35" viewBox="0 0 35 35">
  <g id="loader" transform="translate(-15382 1700)">
    <g id="rating" transform="translate(15382 -1700)">
      <rect id="Rectangle_1315" data-name="Rectangle 1315" width="35" height="35" fill="none"/>
    </g>
    <path id="Subtraction_56" data-name="Subtraction 56" d="M15.971,33A17.179,17.179,0,0,1,3.929,28.158,16.175,16.175,0,0,1-.917,18.615l4.212-1.6A12.487,12.487,0,0,0,15.974,28.746,12.505,12.505,0,0,0,28.66,16.464,12.505,12.505,0,0,0,15.974,4.183c-.33,0-.663.013-.99.037L15.2-.055c.266-.012.527-.016.773-.016A17.179,17.179,0,0,1,28.013,4.77a16.2,16.2,0,0,1,0,23.387A17.179,17.179,0,0,1,15.971,33Z" transform="translate(15383 -1699)" fill="#19ca4b"/>
  </g>
</svg>
