<svg xmlns="http://www.w3.org/2000/svg" width="35" height="35" viewBox="0 0 35 35">
  <g id="Group_2206" data-name="Group 2206" transform="translate(9058 1226)">
    <rect id="Rectangle_1316" data-name="Rectangle 1316" width="35" height="35" transform="translate(-9058 -1226)" fill="none"/>
    <path id="Icon_ionic-ios-star" data-name="Icon ionic-ios-star" d="M32.074,14.106H21.895L18.8,4.165a1.1,1.1,0,0,0-2.1,0l-3.093,9.941H3.357A1.155,1.155,0,0,0,2.25,15.3a.941.941,0,0,0,.021.2,1.168,1.168,0,0,0,.464.842L11.1,22.69,7.89,32.743a1.251,1.251,0,0,0,.381,1.341,1.034,1.034,0,0,0,.623.291,1.3,1.3,0,0,0,.692-.268L17.75,27.84l8.165,6.267a1.24,1.24,0,0,0,.692.268.961.961,0,0,0,.616-.291,1.235,1.235,0,0,0,.381-1.341L24.393,22.69l8.3-6.409.2-.186a1.289,1.289,0,0,0,.36-.8A1.213,1.213,0,0,0,32.074,14.106Z" transform="translate(-9058.6 -1227.375)" fill="#19ca4b"/>
  </g>
</svg>
