<svg xmlns="http://www.w3.org/2000/svg" width="35" height="35" viewBox="0 0 35 35"><g id="Group_2133" data-name="Group 2133" transform="translate(-14099 1623)"><rect id="Rectangle_1276" width="35" height="35" fill="none" data-name="Rectangle 1276" transform="translate(14099 -1623)"/><path id="Union_1" fill="#19ca4b" d="M28.234,29.946l-7.075-6.4a13.05,13.05,0,0,1-17.322-1.07,13.211,13.211,0,0,1,0-18.617,13.051,13.051,0,0,1,18.523,0,13.222,13.222,0,0,1,1.291,17.111l6.974,6.31a1.8,1.8,0,0,1,.131,2.535,1.779,1.779,0,0,1-2.522.133ZM2.381,13.164A10.716,10.716,0,1,0,13.1,2.393,10.756,10.756,0,0,0,2.381,13.164Z" data-name="Union 1" transform="translate(14101 -1621)"/></g></svg>